<svg xmlns="http://www.w3.org/2000/svg" viewBox="0 0 256 256" width="256" height="256" aria-labelledby="title desc" role="img">
  <title id="title">RISE Mini Passport</title>
  <desc id="desc">Mini passport card icon matching the banner style.</desc>
  <defs>
    <!-- Tile background -->
    <linearGradient id="tileBg" x1="0" y1="0" x2="1" y2="1">
      <stop offset="0%" stop-color="#7967e5"/>
      <stop offset="55%" stop-color="#ffa0f2"/>
      <stop offset="100%" stop-color="#ffc393"/>
    </linearGradient>
    <!-- Card background like banner -->
    <linearGradient id="cardBg" x1="0" y1="0" x2="1" y2="1">
      <stop offset="0%" stop-color="#3f34b3"/>
      <stop offset="50%" stop-color="#7a2f79"/>
      <stop offset="100%" stop-color="#b36b4b"/>
    </linearGradient>
    <linearGradient id="ring" x1="0" y1="0" x2="1" y2="1">
      <stop offset="0%" stop-color="#7967e5"/>
      <stop offset="50%" stop-color="#ffa0f2"/>
      <stop offset="100%" stop-color="#ffc393"/>
    </linearGradient>
    <linearGradient id="gloss" x1="0" y1="0" x2="0" y2="1">
      <stop offset="0%" stop-color="#ffffff" stop-opacity="0.35"/>
      <stop offset="100%" stop-color="#ffffff" stop-opacity="0"/>
    </linearGradient>
    <!-- R glyph from Rise_Light Logotype.svg (first path) -->
    <symbol id="riseR" viewBox="0 0 128.909 155.608">
      <path d="M90.232 0.391113H0V26.2604H90.232C97.3505 26.2604 103.122 32.0525 103.122 39.1954V52.1304H39.462C17.6676 52.1304 0 69.7977 0 91.5923V155.608H25.7807V94.7762L91.0249 155.605H128.909L45.6636 77.9997H103.122V52.2563H128.909V39.1954C128.909 17.7643 111.588 0.391113 90.232 0.391113Z" fill="#ffffff"/>
    </symbol>
    <filter id="shadow" x="-20%" y="-20%" width="140%" height="140%">
      <feDropShadow dx="0" dy="6" stdDeviation="8" flood-color="#000" flood-opacity="0.28"/>
    </filter>
  </defs>

  <!-- Rounded tile -->
  <rect x="0" y="0" width="256" height="256" rx="44" fill="url(#tileBg)"/>

  <!-- Centered mini passport card -->
  <g transform="translate(128,128)">
    <g transform="translate(-88,-64)" filter="url(#shadow)">
      <rect x="0" y="0" width="176" height="128" rx="16" fill="url(#cardBg)"/>
      <rect x="0" y="0" width="176" height="40" rx="16" fill="url(#gloss)"/>
      <rect x="10" y="12" width="4" height="104" rx="2" fill="url(#ring)" opacity="0.95"/>
      <!-- emblem -->
      <g transform="translate(132,48)">
        <circle r="22" fill="rgba(255,255,255,0.10)" stroke="#ffffff" stroke-opacity="0.22" stroke-width="0.8"/>
        <circle r="26" fill="none" stroke="url(#ring)" stroke-width="3"/>
        <g transform="translate(-12,-13) scale(0.1)">
          <use href="#riseR"/>
        </g>
      </g>
      <!-- content lines -->
      <g opacity="0.9">
        <rect x="24" y="85" width="90" height="6" rx="3" fill="#ffffff" opacity="0.22"/>
        <rect x="24" y="100" width="74" height="6" rx="3" fill="#ffffff" opacity="0.18"/>

      </g>
    </g>
  </g>
</svg>
